<mxfile host="app.diagrams.net" agent="Mozilla/5.0 (Windows NT 10.0; Win64; x64) AppleWebKit/537.36 (KHTML, like Gecko) Chrome/141.0.0.0 Safari/537.36" version="28.0.5">
  <diagram name="ページ1" id="1esZxNMHSjvF9V8haT3V">
    <mxGraphModel dx="2066" dy="1109" grid="1" gridSize="10" guides="1" tooltips="1" connect="1" arrows="1" fold="1" page="1" pageScale="1" pageWidth="1169" pageHeight="827" math="0" shadow="0">
      <root>
        <mxCell id="0" />
        <mxCell id="1" parent="0" />
        <mxCell id="LYtT7-WvY3AS3YzJVwVW-2" value="AWS" style="shape=mxgraph.ibm.box;prType=region;fontStyle=0;verticalAlign=top;align=left;spacingLeft=32;spacingTop=4;fillColor=none;rounded=0;whiteSpace=wrap;html=1;strokeColor=#919191;strokeWidth=2;dashed=0;container=0;spacing=-4;collapsible=0;expand=0;recursiveResize=0;" vertex="1" parent="1">
          <mxGeometry x="260" y="160" width="820" height="460" as="geometry" />
        </mxCell>
        <mxCell id="LYtT7-WvY3AS3YzJVwVW-4" value="" style="shape=mxgraph.networks2.icon;aspect=fixed;fillColor=#EDEDED;strokeColor=#000000;gradientColor=#5B6163;network2IconShadow=1;network2bgFillColor=none;network2Icon=mxgraph.networks2.laptop;network2IconW=1;network2IconH=0.5734;" vertex="1" parent="1">
          <mxGeometry x="150" y="239" width="50" height="28.67" as="geometry" />
        </mxCell>
        <mxCell id="LYtT7-WvY3AS3YzJVwVW-9" value="" style="dashed=0;outlineConnect=0;html=1;align=center;labelPosition=center;verticalLabelPosition=bottom;verticalAlign=top;shape=mxgraph.weblogos.github" vertex="1" parent="1">
          <mxGeometry x="130" y="460" width="75" height="75" as="geometry" />
        </mxCell>
        <mxCell id="LYtT7-WvY3AS3YzJVwVW-16" value="" style="outlineConnect=0;dashed=0;verticalLabelPosition=bottom;verticalAlign=top;align=center;html=1;shape=mxgraph.aws3.users;fillColor=#D2D3D3;gradientColor=none;" vertex="1" parent="1">
          <mxGeometry x="70" y="222.84" width="66" height="63" as="geometry" />
        </mxCell>
        <mxCell id="LYtT7-WvY3AS3YzJVwVW-31" value="" style="edgeStyle=orthogonalEdgeStyle;html=1;endArrow=none;elbow=vertical;startArrow=openThin;startFill=0;strokeColor=#545B64;rounded=0;" edge="1" parent="1">
          <mxGeometry width="100" relative="1" as="geometry">
            <mxPoint x="120" y="510" as="sourcePoint" />
            <mxPoint x="100" y="300" as="targetPoint" />
          </mxGeometry>
        </mxCell>
        <mxCell id="LYtT7-WvY3AS3YzJVwVW-19" value="" style="group" vertex="1" connectable="0" parent="1">
          <mxGeometry x="920" y="220" width="120" height="118" as="geometry" />
        </mxCell>
        <mxCell id="LYtT7-WvY3AS3YzJVwVW-7" value="" style="sketch=0;points=[[0,0,0],[0.25,0,0],[0.5,0,0],[0.75,0,0],[1,0,0],[0,1,0],[0.25,1,0],[0.5,1,0],[0.75,1,0],[1,1,0],[0,0.25,0],[0,0.5,0],[0,0.75,0],[1,0.25,0],[1,0.5,0],[1,0.75,0]];outlineConnect=0;fontColor=#232F3E;fillColor=#DD344C;strokeColor=#ffffff;dashed=0;verticalLabelPosition=bottom;verticalAlign=top;align=center;html=1;fontSize=12;fontStyle=0;aspect=fixed;shape=mxgraph.aws4.resourceIcon;resIcon=mxgraph.aws4.certificate_manager_3;" vertex="1" parent="LYtT7-WvY3AS3YzJVwVW-19">
          <mxGeometry x="21" width="78" height="78" as="geometry" />
        </mxCell>
        <mxCell id="LYtT7-WvY3AS3YzJVwVW-13" value="Amazon Certifcate Manager（ACM）" style="text;html=1;align=center;verticalAlign=middle;whiteSpace=wrap;rounded=0;" vertex="1" parent="LYtT7-WvY3AS3YzJVwVW-19">
          <mxGeometry y="78" width="120" height="40" as="geometry" />
        </mxCell>
        <mxCell id="LYtT7-WvY3AS3YzJVwVW-29" value="" style="edgeStyle=orthogonalEdgeStyle;html=1;endArrow=none;elbow=vertical;startArrow=openThin;startFill=0;strokeColor=#545B64;rounded=0;" edge="1" parent="LYtT7-WvY3AS3YzJVwVW-19">
          <mxGeometry width="100" relative="1" as="geometry">
            <mxPoint x="-90" y="39.75" as="sourcePoint" />
            <mxPoint x="10" y="39.75" as="targetPoint" />
          </mxGeometry>
        </mxCell>
        <mxCell id="LYtT7-WvY3AS3YzJVwVW-20" value="" style="group" vertex="1" connectable="0" parent="1">
          <mxGeometry x="730" y="235.25" width="120" height="87.5" as="geometry" />
        </mxCell>
        <mxCell id="LYtT7-WvY3AS3YzJVwVW-8" value="" style="points=[[0.015,0.015,0],[0.25,0,0],[0.5,0,0],[0.75,0,0],[0.985,0.015,0],[1,0.22,0],[1,0.44,0],[1,0.67,0],[0.985,0.89,0],[0,0.22,0],[0,0.44,0],[0,0.67,0],[0.015,0.89,0],[0.25,0.91,0],[0.5,0.91,0],[0.785,0.955,0]];verticalLabelPosition=bottom;sketch=0;html=1;verticalAlign=top;aspect=fixed;align=center;pointerEvents=1;shape=mxgraph.cisco19.x509_certificate;fillColor=#005073;strokeColor=none;" vertex="1" parent="LYtT7-WvY3AS3YzJVwVW-20">
          <mxGeometry x="31" width="50" height="47.5" as="geometry" />
        </mxCell>
        <mxCell id="LYtT7-WvY3AS3YzJVwVW-14" value="SSL/TLS証明書" style="text;html=1;align=center;verticalAlign=middle;whiteSpace=wrap;rounded=0;" vertex="1" parent="LYtT7-WvY3AS3YzJVwVW-20">
          <mxGeometry y="47.5" width="120" height="40" as="geometry" />
        </mxCell>
        <mxCell id="LYtT7-WvY3AS3YzJVwVW-21" value="" style="group" vertex="1" connectable="0" parent="1">
          <mxGeometry x="530" y="220" width="120" height="118" as="geometry" />
        </mxCell>
        <mxCell id="LYtT7-WvY3AS3YzJVwVW-6" value="" style="sketch=0;points=[[0,0,0],[0.25,0,0],[0.5,0,0],[0.75,0,0],[1,0,0],[0,1,0],[0.25,1,0],[0.5,1,0],[0.75,1,0],[1,1,0],[0,0.25,0],[0,0.5,0],[0,0.75,0],[1,0.25,0],[1,0.5,0],[1,0.75,0]];outlineConnect=0;fontColor=#232F3E;fillColor=#8C4FFF;strokeColor=#ffffff;dashed=0;verticalLabelPosition=bottom;verticalAlign=top;align=center;html=1;fontSize=12;fontStyle=0;aspect=fixed;shape=mxgraph.aws4.resourceIcon;resIcon=mxgraph.aws4.cloudfront;" vertex="1" parent="LYtT7-WvY3AS3YzJVwVW-21">
          <mxGeometry x="21" width="78" height="78" as="geometry" />
        </mxCell>
        <mxCell id="LYtT7-WvY3AS3YzJVwVW-12" value="Amazon CloudFront" style="text;html=1;align=center;verticalAlign=middle;whiteSpace=wrap;rounded=0;" vertex="1" parent="LYtT7-WvY3AS3YzJVwVW-21">
          <mxGeometry y="78" width="120" height="40" as="geometry" />
        </mxCell>
        <mxCell id="LYtT7-WvY3AS3YzJVwVW-22" value="" style="group" vertex="1" connectable="0" parent="1">
          <mxGeometry x="310" y="220.00000000000003" width="120" height="117.99999999999997" as="geometry" />
        </mxCell>
        <mxCell id="LYtT7-WvY3AS3YzJVwVW-5" value="" style="sketch=0;points=[[0,0,0],[0.25,0,0],[0.5,0,0],[0.75,0,0],[1,0,0],[0,1,0],[0.25,1,0],[0.5,1,0],[0.75,1,0],[1,1,0],[0,0.25,0],[0,0.5,0],[0,0.75,0],[1,0.25,0],[1,0.5,0],[1,0.75,0]];outlineConnect=0;fontColor=#232F3E;fillColor=#8C4FFF;strokeColor=#ffffff;dashed=0;verticalLabelPosition=bottom;verticalAlign=top;align=center;html=1;fontSize=12;fontStyle=0;aspect=fixed;shape=mxgraph.aws4.resourceIcon;resIcon=mxgraph.aws4.route_53;" vertex="1" parent="LYtT7-WvY3AS3YzJVwVW-22">
          <mxGeometry x="20" width="78" height="78" as="geometry" />
        </mxCell>
        <mxCell id="LYtT7-WvY3AS3YzJVwVW-11" value="Amazon Route53" style="text;html=1;align=center;verticalAlign=middle;whiteSpace=wrap;rounded=0;" vertex="1" parent="LYtT7-WvY3AS3YzJVwVW-22">
          <mxGeometry y="77.99999999999997" width="120" height="40" as="geometry" />
        </mxCell>
        <mxCell id="LYtT7-WvY3AS3YzJVwVW-23" value="" style="group" vertex="1" connectable="0" parent="1">
          <mxGeometry x="500" y="460" width="200" height="120" as="geometry" />
        </mxCell>
        <mxCell id="LYtT7-WvY3AS3YzJVwVW-1" value="" style="sketch=0;points=[[0,0,0],[0.25,0,0],[0.5,0,0],[0.75,0,0],[1,0,0],[0,1,0],[0.25,1,0],[0.5,1,0],[0.75,1,0],[1,1,0],[0,0.25,0],[0,0.5,0],[0,0.75,0],[1,0.25,0],[1,0.5,0],[1,0.75,0]];outlineConnect=0;fontColor=#232F3E;fillColor=#7AA116;strokeColor=#ffffff;dashed=0;verticalLabelPosition=bottom;verticalAlign=top;align=center;html=1;fontSize=12;fontStyle=0;aspect=fixed;shape=mxgraph.aws4.resourceIcon;resIcon=mxgraph.aws4.s3;" vertex="1" parent="LYtT7-WvY3AS3YzJVwVW-23">
          <mxGeometry x="50" width="78" height="78" as="geometry" />
        </mxCell>
        <mxCell id="LYtT7-WvY3AS3YzJVwVW-10" value="Amazon Simple Storage Service（Amazon S3）" style="text;html=1;align=center;verticalAlign=middle;whiteSpace=wrap;rounded=0;" vertex="1" parent="LYtT7-WvY3AS3YzJVwVW-23">
          <mxGeometry y="80" width="200" height="40" as="geometry" />
        </mxCell>
        <mxCell id="LYtT7-WvY3AS3YzJVwVW-25" value="" style="edgeStyle=orthogonalEdgeStyle;html=1;endArrow=openThin;elbow=vertical;startArrow=none;endFill=0;strokeColor=#545B64;rounded=0;" edge="1" parent="1">
          <mxGeometry width="100" relative="1" as="geometry">
            <mxPoint x="210" y="260" as="sourcePoint" />
            <mxPoint x="310" y="260" as="targetPoint" />
          </mxGeometry>
        </mxCell>
        <mxCell id="LYtT7-WvY3AS3YzJVwVW-27" value="" style="edgeStyle=orthogonalEdgeStyle;html=1;endArrow=openThin;elbow=vertical;startArrow=none;endFill=0;strokeColor=#545B64;rounded=0;" edge="1" parent="1">
          <mxGeometry width="100" relative="1" as="geometry">
            <mxPoint x="430" y="260" as="sourcePoint" />
            <mxPoint x="530" y="260" as="targetPoint" />
          </mxGeometry>
        </mxCell>
        <mxCell id="LYtT7-WvY3AS3YzJVwVW-28" value="" style="edgeStyle=orthogonalEdgeStyle;html=1;endArrow=none;elbow=vertical;startArrow=openThin;startFill=0;strokeColor=#545B64;rounded=0;" edge="1" parent="1">
          <mxGeometry width="100" relative="1" as="geometry">
            <mxPoint x="650" y="260" as="sourcePoint" />
            <mxPoint x="750" y="260" as="targetPoint" />
          </mxGeometry>
        </mxCell>
        <mxCell id="LYtT7-WvY3AS3YzJVwVW-30" value="" style="edgeStyle=orthogonalEdgeStyle;html=1;endArrow=none;elbow=vertical;startArrow=openThin;startFill=0;strokeColor=#545B64;rounded=0;" edge="1" parent="1">
          <mxGeometry width="100" relative="1" as="geometry">
            <mxPoint x="589.5" y="349" as="sourcePoint" />
            <mxPoint x="589.5" y="439" as="targetPoint" />
          </mxGeometry>
        </mxCell>
        <mxCell id="LYtT7-WvY3AS3YzJVwVW-34" value="" style="edgeStyle=orthogonalEdgeStyle;html=1;endArrow=openThin;elbow=vertical;startArrow=none;endFill=0;strokeColor=#545B64;rounded=0;" edge="1" parent="1">
          <mxGeometry width="100" relative="1" as="geometry">
            <mxPoint x="220" y="500" as="sourcePoint" />
            <mxPoint x="530" y="500" as="targetPoint" />
          </mxGeometry>
        </mxCell>
        <mxCell id="LYtT7-WvY3AS3YzJVwVW-35" value="github" style="text;html=1;align=center;verticalAlign=middle;whiteSpace=wrap;rounded=0;" vertex="1" parent="1">
          <mxGeometry x="132.5" y="535" width="70" height="40" as="geometry" />
        </mxCell>
        <mxCell id="LYtT7-WvY3AS3YzJVwVW-36" value="github action&lt;div&gt;（CI/CDを実行）&lt;/div&gt;" style="text;html=1;align=center;verticalAlign=middle;whiteSpace=wrap;rounded=0;" vertex="1" parent="1">
          <mxGeometry x="270" y="454" width="170" height="40" as="geometry" />
        </mxCell>
        <mxCell id="LYtT7-WvY3AS3YzJVwVW-40" value="" style="group" vertex="1" connectable="0" parent="1">
          <mxGeometry x="240" y="496" width="170" height="84" as="geometry" />
        </mxCell>
        <mxCell id="LYtT7-WvY3AS3YzJVwVW-39" value="Identity and Access Management (IAM)" style="text;html=1;align=center;verticalAlign=middle;whiteSpace=wrap;rounded=0;" vertex="1" parent="LYtT7-WvY3AS3YzJVwVW-40">
          <mxGeometry y="44" width="170" height="40" as="geometry" />
        </mxCell>
        <mxCell id="LYtT7-WvY3AS3YzJVwVW-37" value="" style="sketch=0;outlineConnect=0;fontColor=#232F3E;gradientColor=none;fillColor=#DD344C;strokeColor=none;dashed=0;verticalLabelPosition=bottom;verticalAlign=top;align=center;html=1;fontSize=12;fontStyle=0;aspect=fixed;pointerEvents=1;shape=mxgraph.aws4.role;" vertex="1" parent="LYtT7-WvY3AS3YzJVwVW-40">
          <mxGeometry x="58" y="11.54000000000002" width="54" height="30.46" as="geometry" />
        </mxCell>
        <mxCell id="LYtT7-WvY3AS3YzJVwVW-41" value="push" style="text;html=1;align=center;verticalAlign=middle;whiteSpace=wrap;rounded=0;" vertex="1" parent="1">
          <mxGeometry x="100" y="380" width="60" height="40" as="geometry" />
        </mxCell>
        <mxCell id="LYtT7-WvY3AS3YzJVwVW-43" value="&lt;font style=&quot;font-size: 19px;&quot;&gt;&lt;u&gt;&lt;b&gt;AWS 静的サイトサーバレス構成&lt;/b&gt;&lt;/u&gt;&lt;/font&gt;" style="text;html=1;align=center;verticalAlign=middle;whiteSpace=wrap;rounded=0;" vertex="1" parent="1">
          <mxGeometry x="30" y="20" width="290" height="40" as="geometry" />
        </mxCell>
        <mxCell id="LYtT7-WvY3AS3YzJVwVW-44" value="URL：xxxx.masaru-study.com" style="text;html=1;align=center;verticalAlign=middle;whiteSpace=wrap;rounded=0;" vertex="1" parent="1">
          <mxGeometry x="60" y="70" width="270" height="40" as="geometry" />
        </mxCell>
        <mxCell id="LYtT7-WvY3AS3YzJVwVW-46" value="drawio：&lt;span style=&quot;background-color: transparent; color: light-dark(rgb(0, 0, 0), rgb(255, 255, 255));&quot;&gt;https://app.diagrams.net/?splash=0&amp;amp;libs=aws4&lt;/span&gt;" style="text;html=1;align=center;verticalAlign=middle;whiteSpace=wrap;rounded=0;" vertex="1" parent="1">
          <mxGeometry x="770" y="750" width="370" height="40" as="geometry" />
        </mxCell>
      </root>
    </mxGraphModel>
  </diagram>
</mxfile>
